#!OML:ASF E:\Steps\Project 1\Capture day 1\Session 2\Subject.ASF
:FULLY-SPECIFIED
:DEGREES
1
root -1.39515 16.3265 21.0129 -151.421 -0.0614187 177.255
lowerback -33.5835 -3.00452 -9.84228
upperback -1.84882 -1.16341 -0.263361
thorax 15.2995 -1.5743 4.36949
lowerneck -2.39598 -5.09924 -1.37738
upperneck 16.957 -6.55785 4.09816
head 5.6901 -2.62614 1.17643
rclavicle 7.00716e-015 2.82274e-014
rhumerus -39.4763 -21.2864 -75.3581
rradius 27.3794
rwrist 3.46092
rhand -5.77273 -61.8019
rfingers 7.12502
rthumb -159.949 -89.2127
lclavicle 7.00716e-015 2.82274e-014
lhumerus -30.4796 13.4354 77.4437
lradius 16.4245
lwrist -14.7002
lhand -17.5605 -12.8745
lfingers 7.12502
lthumb 8.69452 16.9265
rfemur -27.5175 6.84007 16.174
rtibia 9.85478
rfoot -19.3377 -4.14246
rtoes -24.8873
lfemur -25.3864 -5.36722 -24.7768
ltibia 6.55355
lfoot -6.81299 -1.98914
ltoes -30.1628
2
root -1.39782 16.3094 21.0262 -152.166 -0.271326 178.009
lowerback -32.5823 -2.67112 -8.95531
upperback -1.7684 -1.09791 -0.175158
thorax 14.9792 -1.44819 4.06269
lowerneck -2.26988 -5.2694 -1.01289
upperneck 16.7466 -6.77744 3.76833
head 5.58552 -2.74611 1.00519
rclavicle -8.39865e-015 4.77083e-014
rhumerus -39.7978 -22.9164 -74.0823
rradius 26.1926
rwrist 5.03803
rhand -5.11031 -52.7873
rfingers 7.12502
rthumb -159.313 -261.705
lclavicle -8.39865e-015 4.77083e-014
lhumerus -30.4118 12.9674 77.5751
lradius 16.536
lwrist -14.0606
lhand -17.657 -13.0431
lfingers 7.12502
lthumb 8.60134 16.7617
rfemur -26.6617 7.09015 17.2088
rtibia 9.72539
rfoot -19.3155 -4.15259
rtoes -25.6438
lfemur -24.5713 -5.56968 -23.779
ltibia 6.51172
lfoot -6.76091 -1.69861
ltoes -27.5674
3
root -1.39999 16.2923 21.0384 -152.937 -0.605663 178.697
lowerback -31.5122 -2.4408 -8.15289
upperback -1.72723 -1.13725 -0.061048
thorax 14.5837 -1.37614 3.77962
lowerneck -2.31308 -5.36544 -0.934433
upperneck 16.9282 -6.91508 3.84766
head 5.65348 -2.79035 1.00734
rclavicle 9.44227e-016 -2.54444e-014
rhumerus -39.951 -22.9987 -74.0147
rradius 26.1943
rwrist 4.70685
rhand -5.3378 -52.7152
rfingers 7.12502
rthumb -159.531 -261.656
lclavicle 9.44227e-016 -2.54444e-014
lhumerus -30.4435 12.5669 77.6605
lradius 16.5935
lwrist -13.4659
lhand -17.7359 -13.1897
lfingers 7.12502
lthumb 8.52521 16.6182
rfemur -25.7151 7.38186 18.1694
rtibia 9.53292
rfoot -19.2831 -4.27542
rtoes -25.4844
lfemur -23.7518 -5.56678 -22.9189
ltibia 6.44502
lfoot -6.90816 -1.35771
ltoes -29.5667
4
root -1.40445 16.2564 21.0671 -154.671 -1.19808 180.112
lowerback -29.205 -2.00606 -6.51185
upperback -1.58141 -1.21558 0.248633
thorax 13.7528 -1.23817 3.27366
lowerneck -2.38088 -5.46422 -1.12191
upperneck 17.1672 -7.07429 4.20222
head 5.7639 -2.83792 1.13624
rclavicle 6.55989e-015 2.70347e-014
rhumerus -40.0797 -23.0467 -73.9293
rradius 26.1079
rwrist 4.34227
rhand -6.07694 -52.8864
rfingers 7.12502
rthumb -160.242 -261.902
lclavicle 6.55989e-015 2.70347e-014
lhumerus -30.4921 11.9159 77.9423
lradius 16.6214
lwrist -12.3174
lhand -18.1387 -13.7864
lfingers 7.12502
lthumb 8.13642 16.0369
rfemur -23.6719 7.78998 20.2039
rtibia 9.27069
rfoot -19.2887 -4.4216
rtoes -25.5186
lfemur -21.9356 -5.62332 -21.1768
ltibia 6.26835
lfoot -6.99431 -1.01628
ltoes -30.5291
5
root -1.40592 16.2534 21.0552 -154.799 -1.09675 180.178
lowerback -29.2487 -1.96076 -6.43864
upperback -1.49825 -1.16101 0.239324
thorax 13.863 -1.20877 3.24491
lowerneck -2.14637 -5.20528 -0.953691
upperneck 16.7769 -6.70544 3.96815
head 5.57673 -2.68666 1.06569
rclavicle 9.83984e-015 4.37326e-015
rhumerus -40.1293 -23.1527 -73.8925
rradius 26.0918
rwrist 4.22025
rhand -6.55568 -53.6165
rfingers 7.12502
rthumb -160.702 -262.679
lclavicle 9.83984e-015 4.37326e-015
lhumerus -30.4599 11.3969 78.1385
lradius 16.8361
lwrist -11.6624
lhand -17.7234 -13.4467
lfingers 7.12502
lthumb 8.53728 16.3607
rfemur -23.48 7.74058 20.3069
rtibia 9.26951
rfoot -19.2973 -4.29595
rtoes -25.4963
lfemur -21.671 -5.7034 -21.1129
ltibia 6.11615
lfoot -6.9914 -0.933549
ltoes -29.2587
